<svg width="520" height="520" viewBox="0 0 520 520" fill="none" xmlns="http://www.w3.org/2000/svg">
  <rect width="520" height="520" rx="24" fill="#F8F4ED"/>
  <rect x="40" y="40" width="440" height="440" rx="16" fill="#FFFFFF" stroke="#D8CDBB" stroke-width="4"/>
  <rect x="80" y="80" width="70" height="70" fill="#1D1D1D"/>
  <rect x="96" y="96" width="38" height="38" fill="#FFFFFF"/>
  <rect x="370" y="80" width="70" height="70" fill="#1D1D1D"/>
  <rect x="386" y="96" width="38" height="38" fill="#FFFFFF"/>
  <rect x="80" y="370" width="70" height="70" fill="#1D1D1D"/>
  <rect x="96" y="386" width="38" height="38" fill="#FFFFFF"/>
  <rect x="180" y="180" width="20" height="20" fill="#1D1D1D"/>
  <rect x="220" y="180" width="20" height="20" fill="#1D1D1D"/>
  <rect x="260" y="180" width="20" height="20" fill="#1D1D1D"/>
  <rect x="300" y="180" width="20" height="20" fill="#1D1D1D"/>
  <rect x="340" y="180" width="20" height="20" fill="#1D1D1D"/>
  <rect x="180" y="220" width="20" height="20" fill="#1D1D1D"/>
  <rect x="260" y="220" width="20" height="20" fill="#1D1D1D"/>
  <rect x="340" y="220" width="20" height="20" fill="#1D1D1D"/>
  <rect x="180" y="260" width="20" height="20" fill="#1D1D1D"/>
  <rect x="220" y="260" width="20" height="20" fill="#1D1D1D"/>
  <rect x="300" y="260" width="20" height="20" fill="#1D1D1D"/>
  <rect x="340" y="260" width="20" height="20" fill="#1D1D1D"/>
  <rect x="180" y="300" width="20" height="20" fill="#1D1D1D"/>
  <rect x="260" y="300" width="20" height="20" fill="#1D1D1D"/>
  <rect x="340" y="300" width="20" height="20" fill="#1D1D1D"/>
  <text x="260" y="478" text-anchor="middle" fill="#8A5A3C" font-size="24" font-family="Arial, sans-serif">KHAN BANK QR PLACEHOLDER</text>
</svg>
